<svg viewBox="0 0 101 20" xmlns="http://www.w3.org/2000/svg"><path d="M47.128 11.44H58.49V7.653H47.128V2.87H43.34v13.26a3.789 3.789 0 0 0 3.788 3.787H58.49V16.13H47.128v-3.788zM76.51 9.503H65.128V6.658H76.49V2.87H65.128a3.789 3.789 0 0 0-3.788 3.788V19.91h3.788v-6.62H76.51zm18.03 3.694a3.783 3.783 0 0 0-3.787-3.694h-7.595V6.658H94.52V2.87H83.158a3.789 3.789 0 0 0-3.788 3.788v2.845a3.79 3.79 0 0 0 3.774 3.788h7.609v2.845H79.39v3.788h11.363a3.789 3.789 0 0 0 3.787-3.787c0-.06 0-.114-.006-.167h.006zm4.32 6.733a1.89 1.89 0 1 0 0-3.78 1.89 1.89 0 0 0 0 3.78zM24.51 0H12.92v3.788h11.59zm0 16.21H12.92v3.788h11.59zm-12.84.002H9.7A5.918 5.918 0 0 1 3.787 10.3v-.6a5.918 5.918 0 0 1 5.911-5.912h1.97V0H9.7C4.355 0 0 4.349 0 9.7v.6C0 15.645 4.349 20 9.7 20h1.97zM27.73 0h-1.97v3.788h1.97a5.918 5.918 0 0 1 5.912 5.911v.602a5.918 5.918 0 0 1-5.911 5.911H25.76V20h1.97c5.345 0 9.7-4.349 9.7-9.7v-.6c0-5.345-4.355-9.7-9.7-9.7z" fill="#fff"/></svg>