<?xml version="1.0" standalone="no"?>
<!DOCTYPE svg PUBLIC "-//W3C//DTD SVG 20010904//EN"
 "http://www.w3.org/TR/2001/REC-SVG-20010904/DTD/svg10.dtd">
<svg version="1.0" xmlns="http://www.w3.org/2000/svg"
 width="512.000000pt" height="512.000000pt" viewBox="0 0 512.000000 512.000000"
 preserveAspectRatio="xMidYMid meet">
<metadata>
Created by potrace 1.14, written by Peter Selinger 2001-2017
</metadata>
<g transform="translate(0.000000,512.000000) scale(0.100000,-0.100000)"
fill="#000000" stroke="none">
<path d="M30 2560 l0 -2530 2530 0 2530 0 0 2530 0 2530 -2530 0 -2530 0 0
-2530z m4690 0 l0 -2160 -2160 0 -2160 0 0 2160 0 2160 2160 0 2160 0 0 -2160z"/>
<path d="M1210 2560 l0 -1560 320 0 320 0 0 522 0 522 159 159 158 160 25 -34
c14 -19 231 -325 482 -681 l457 -648 415 0 c228 0 414 3 414 8 -1 4 -302 417
-669 917 l-669 910 642 643 641 642 -425 -1 -425 -1 -600 -641 -600 -641 -3
642 -2 642 -320 0 -320 0 0 -1560z"/>
</g>
</svg>
