<svg xmlns="http://www.w3.org/2000/svg" width="51" height="52"><path fill="#383838" d="M49.818 48.503c.178.615.346 1.2-.025 1.684-.55.733-1.9.813-6.986.813H8.212c-5.095 0-6.44-.08-6.991-.813-.37-.492-.202-1.073-.024-1.687l.039-.133c.2-.703.768-1.22 1.37-1.77 1.18-1.08 2.518-2.305 1.832-5.36C3.484 37 4.113 30.43 4.35 28.35a2.18 2.18 0 0 1-2.133-2.176v-6.296a2.179 2.179 0 0 1 2.037-2.17c.988-1.024 6.243-6.512 10.564-10.945 4.923-5.046 9.546-5.837 10.429-5.757h.568c.824-.069 5.454.704 10.38 5.756 4.32 4.428 9.58 9.918 10.563 10.946a2.177 2.177 0 0 1 2.04 2.173v6.297a2.178 2.178 0 0 1-2.133 2.175c.237 2.082.866 8.653-.088 12.89-.686 3.053.647 4.278 1.832 5.36.603.549 1.17 1.07 1.37 1.768l.04.133zM15.638 7.564a1762.459 1762.459 0 0 0-9.792 10.142h39.32a1688.075 1688.075 0 0 0-9.79-10.14c-4.639-4.757-8.873-5.467-9.51-5.415h-.669c-.682-.069-4.922.655-9.56 5.413zM3.362 26.177c0 .57.462 1.032 1.032 1.033h42.223a1.035 1.035 0 0 0 1.032-1.033v-6.296a1.033 1.033 0 0 0-1.032-1.032H4.395c-.57 0-1.031.462-1.032 1.032zm39.445 23.681c2.552 0 5.727 0 6.074-.359a3.962 3.962 0 0 0-.163-.677l-.039-.135c-.113-.39-.543-.785-1.043-1.241-1.27-1.162-3.005-2.754-2.176-6.456.923-4.103.263-10.773.051-12.636H5.502c-.213 1.865-.872 8.534.05 12.636.834 3.702-.906 5.293-2.175 6.456-.5.456-.93.85-1.043 1.24l-.039.136c-.073.254-.174.604-.15.701.333.336 3.509.336 6.06.336h34.603z"/><path fill="none" stroke="#383838" stroke-miterlimit="20" stroke-width=".4" d="M49.818 48.503c.178.615.346 1.2-.025 1.684-.55.733-1.9.813-6.986.813H8.212c-5.095 0-6.44-.08-6.991-.813-.37-.492-.202-1.073-.024-1.687l.039-.133c.2-.703.768-1.22 1.37-1.77 1.18-1.08 2.518-2.305 1.832-5.36C3.484 37 4.113 30.43 4.35 28.35a2.18 2.18 0 0 1-2.133-2.176v-6.296a2.179 2.179 0 0 1 2.037-2.17c.988-1.024 6.243-6.512 10.564-10.945 4.923-5.046 9.546-5.837 10.429-5.757h.568c.824-.069 5.454.704 10.38 5.756 4.32 4.428 9.58 9.918 10.563 10.946a2.177 2.177 0 0 1 2.04 2.173v6.297a2.178 2.178 0 0 1-2.133 2.175v0c.237 2.082.866 8.653-.088 12.89-.686 3.053.647 4.278 1.832 5.36.603.549 1.17 1.07 1.37 1.768l.04.133zM15.638 7.564a1762.459 1762.459 0 0 0-9.792 10.142h39.32a1688.075 1688.075 0 0 0-9.79-10.14c-4.639-4.757-8.873-5.467-9.51-5.415h-.669c-.682-.069-4.922.655-9.56 5.413zM3.362 26.177c0 .57.462 1.032 1.032 1.033h42.223a1.035 1.035 0 0 0 1.032-1.033v-6.296a1.033 1.033 0 0 0-1.032-1.032H4.395c-.57 0-1.031.462-1.032 1.032zm39.445 23.681c2.552 0 5.727 0 6.074-.359a3.962 3.962 0 0 0-.163-.677h0l-.039-.135c-.113-.39-.543-.785-1.043-1.241-1.27-1.162-3.005-2.754-2.176-6.456.923-4.103.263-10.773.051-12.636H5.502c-.213 1.865-.872 8.534.05 12.636.834 3.702-.906 5.293-2.175 6.456-.5.456-.93.85-1.043 1.24l-.039.136c-.073.254-.174.604-.15.701.333.336 3.509.336 6.06.336h34.603z"/><path fill="#383838" d="M17.514 12.23a.865.865 0 1 0 .003-1.729.865.865 0 0 0-.003 1.73z"/><path fill="none" stroke="#383838" stroke-miterlimit="20" stroke-width=".4" d="M17.514 12.23a.865.865 0 1 0 .003-1.729.865.865 0 0 0-.003 1.73z"/><path fill="#383838" d="M13.494 14.638a.864.864 0 1 0 0-1.728.864.864 0 0 0 0 1.728z"/><path fill="none" stroke="#383838" stroke-miterlimit="20" stroke-width=".4" d="M13.494 14.638a.864.864 0 1 0 0-1.728.864.864 0 0 0 0 1.728z"/><path fill="#383838" d="M19.674 8.15a.865.865 0 1 0 .001-1.73.865.865 0 0 0-.001 1.73z"/><path fill="none" stroke="#383838" stroke-miterlimit="20" stroke-width=".4" d="M19.674 8.15a.865.865 0 1 0 .001-1.73.865.865 0 0 0-.001 1.73z"/><path fill="#383838" d="M22.264 11.65a.866.866 0 1 0 .001-1.732.866.866 0 0 0-.001 1.732z"/><path fill="none" stroke="#383838" stroke-miterlimit="20" stroke-width=".4" d="M22.264 11.65a.866.866 0 1 0 .001-1.732.866.866 0 0 0-.001 1.732z"/><path fill="#383838" d="M27.115 13.768a.865.865 0 1 0-.003-1.73.865.865 0 0 0 .003 1.73z"/><path fill="none" stroke="#383838" stroke-miterlimit="20" stroke-width=".4" d="M27.115 13.768a.865.865 0 1 0-.003-1.73.865.865 0 0 0 .003 1.73z"/><path fill="#383838" d="M23.857 4.377a.865.865 0 1 1-.667 1.595.865.865 0 0 1 .667-1.595"/><path fill="none" stroke="#383838" stroke-miterlimit="20" stroke-width=".4" d="M23.857 4.377a.865.865 0 1 1-.667 1.595.865.865 0 0 1 .667-1.595"/><path fill="#383838" d="M28.844 8.15a.865.865 0 1 0 .002-1.73.865.865 0 0 0-.002 1.73z"/><path fill="none" stroke="#383838" stroke-miterlimit="20" stroke-width=".4" d="M28.844 8.15a.865.865 0 1 0 .002-1.73.865.865 0 0 0-.002 1.73z"/><path fill="#383838" d="M17.514 16.68a.865.865 0 1 0 .002-1.73.865.865 0 0 0-.002 1.73z"/><path fill="none" stroke="#383838" stroke-miterlimit="20" stroke-width=".4" d="M17.514 16.68a.865.865 0 1 0 .002-1.73.865.865 0 0 0-.002 1.73z"/><path fill="#383838" d="M10.814 16.838a.864.864 0 1 0 0-1.729.864.864 0 0 0 0 1.729z"/><path fill="none" stroke="#383838" stroke-miterlimit="20" stroke-width=".4" d="M10.814 16.838a.864.864 0 1 0 0-1.729.864.864 0 0 0 0 1.729z"/></svg>