<svg xmlns="http://www.w3.org/2000/svg" width="50" height="50"><path fill="#383838" d="M44.355 0A5.65 5.65 0 0 1 50 5.645v16.936a.807.807 0 0 1-.807.806 4.843 4.843 0 0 1-4.839-4.838V5.645h-2.419v40.323A4.038 4.038 0 0 1 37.903 50H8.87a4.038 4.038 0 0 1-4.032-4.032V8.496L1.796 6.468A4.024 4.024 0 0 1 0 3.112V.806C0 .361.361 0 .806 0h43.548zm-4.033 1.613H1.612v1.5c0 .808.404 1.564 1.078 2.012l3.403 2.268c.224.15.359.402.359.671v37.903a2.423 2.423 0 0 0 2.419 2.42h29.032a2.424 2.424 0 0 0 2.42-2.42zm8.065 4.032a4.038 4.038 0 0 0-4.032-4.033h-2.42v2.42h2.42a1.614 1.614 0 0 1 1.612 1.613v12.903a3.23 3.23 0 0 0 2.42 3.124zM10.484 20.967V25h3.226a.806.806 0 0 1 0 1.613h-3.226v4.032h5.645a.807.807 0 0 1 0 1.613h-5.645v4.033h3.226a.807.807 0 0 1 0 1.612h-3.226v4.033h3.226a.806.806 0 0 1 0 1.613h-3.226v2.419a.806.806 0 0 1-1.613 0V11.29a.806.806 0 0 1 1.613 0v2.42h3.226a.806.806 0 0 1 0 1.612h-3.226v4.032h5.645a.807.807 0 0 1 0 1.613z"/></svg>