<svg xmlns="http://www.w3.org/2000/svg" width="52" height="52"><path fill="#383838" d="M38.097 15.516v1.613h2.42a.807.807 0 0 1 .806.806v3.226a.807.807 0 0 1-.807.807h-2.42v2.097a6.282 6.282 0 0 1 1.614 4.217v1.75h3.226a.807.807 0 0 1 .806.807v8.87h1.613a5.645 5.645 0 0 1 0 11.291H6.645a5.645 5.645 0 0 1 0-11.29h1.613v-8.871c0-.446.361-.807.806-.807h14.517a.807.807 0 0 1 .806.807v8.87h3.226v-8.87c0-.446.361-.807.806-.807h3.226v-1.75a6.283 6.283 0 0 1 1.613-4.217v-2.097h-2.42a.807.807 0 0 1-.806-.807v-.806h-2.42a2.42 2.42 0 0 1-2.418-2.42v-1.612a.807.807 0 0 0-1.613 0v1.613a4.838 4.838 0 1 1-9.678 0v-2.42h-.806a.807.807 0 0 1-.807-.806v-2.42H3.42a.807.807 0 0 1-.807-.806v-2.42h-.807A.807.807 0 0 1 1 8.259V5.032c0-.445.361-.806.806-.806h31.452v-2.42c0-.445.361-.806.807-.806h3.225a.807.807 0 0 1 .807.806v2.42h12.097a.807.807 0 0 1 .806.806v3.226a.807.807 0 0 1-.806.807h-.807v2.419a.807.807 0 0 1-.806.806h-5.645v.807a2.42 2.42 0 0 1-2.42 2.42zm3.226-3.226h-3.226v1.613h2.42a.807.807 0 0 0 .806-.806zm6.451-3.226h-9.677v1.613h9.677zM38.097 5.84v1.613h11.29V5.839zm-8.065 7.258c0 .445.361.806.807.806h2.42V12.29h-3.227zM2.613 7.452h30.645V5.839H2.613zm1.613 3.225h29.032V9.064H4.226zm9.677 1.613v1.613h1.613V12.29zm16.13 5.645c0-.445.36-.806.806-.806h2.42v-1.613h-2.42a2.42 2.42 0 0 1-2.42-2.42v-.806H17.13v2.42a.807.807 0 0 1-.806.806h-.807v2.42a3.226 3.226 0 0 0 6.452 0v-1.613a2.42 2.42 0 0 1 4.839 0v1.613c0 .445.36.806.806.806h2.42zM15.515 33.258h1.613v-1.613h-1.613zM9.871 39.71h12.903v-8.065h-4.032v2.42a.807.807 0 0 1-.806.806H14.71a.807.807 0 0 1-.807-.806v-2.42H9.871zm38.335 2.793a4.034 4.034 0 0 0-2.851-1.18H6.645a4.032 4.032 0 1 0 0 8.064h38.71a4.034 4.034 0 0 0 4.032-4.032c0-1.07-.425-2.095-1.18-2.852zM42.13 31.645H29.226v8.065h12.903zm-5.645-7.258v-2.42h-1.613v2.42a.806.806 0 0 1-.234.572 4.67 4.67 0 0 0-1.379 3.323v1.75h4.839v-1.75a4.671 4.671 0 0 0-1.379-3.323.805.805 0 0 1-.234-.572zm3.226-5.645h-8.065v1.613h8.065zm-3.226-1.613V2.613H34.87v14.516z"/><path fill="none" stroke="#fff" stroke-miterlimit="20" stroke-width=".2" d="M38.097 15.516v1.613h2.42a.807.807 0 0 1 .806.806v3.226a.807.807 0 0 1-.807.807h-2.42v2.097a6.282 6.282 0 0 1 1.614 4.217v1.75h3.226a.807.807 0 0 1 .806.807v8.87h1.613a5.645 5.645 0 0 1 0 11.291H6.645a5.645 5.645 0 0 1 0-11.29h1.613v-8.871c0-.446.361-.807.806-.807h14.517a.807.807 0 0 1 .806.807v8.87h3.226v-8.87c0-.446.361-.807.806-.807h3.226v-1.75a6.283 6.283 0 0 1 1.613-4.217v-2.097h-2.42a.807.807 0 0 1-.806-.807v-.806h-2.42a2.42 2.42 0 0 1-2.418-2.42v-1.612a.807.807 0 0 0-1.613 0v1.613a4.838 4.838 0 1 1-9.678 0v-2.42h-.806a.807.807 0 0 1-.807-.806v-2.42H3.42a.807.807 0 0 1-.807-.806v-2.42h-.807A.807.807 0 0 1 1 8.259V5.032c0-.445.361-.806.806-.806h31.452v-2.42c0-.445.361-.806.807-.806h3.225a.807.807 0 0 1 .807.806v2.42h12.097a.807.807 0 0 1 .806.806v3.226a.807.807 0 0 1-.806.807h-.807v2.419a.807.807 0 0 1-.806.806h-5.645v.807a2.42 2.42 0 0 1-2.42 2.42zm3.226-3.226h-3.226v1.613h2.42a.807.807 0 0 0 .806-.806zm6.451-3.226h-9.677v1.613h9.677zM38.097 5.84v1.613h11.29V5.839zm-8.065 7.258c0 .445.361.806.807.806h2.42V12.29h-3.227zM2.613 7.452h30.645V5.839H2.613zm1.613 3.225h29.032V9.064H4.226zm9.677 1.613v1.613h1.613V12.29zm16.13 5.645c0-.445.36-.806.806-.806h2.42v-1.613h-2.42a2.42 2.42 0 0 1-2.42-2.42v-.806H17.13v2.42a.807.807 0 0 1-.806.806h-.807v2.42a3.226 3.226 0 0 0 6.452 0v-1.613a2.42 2.42 0 0 1 4.839 0v1.613c0 .445.36.806.806.806h2.42zM15.515 33.258h1.613v-1.613h-1.613zM9.871 39.71h12.903v-8.065h-4.032v2.42a.807.807 0 0 1-.806.806H14.71a.807.807 0 0 1-.807-.806v-2.42H9.871zm38.335 2.793a4.034 4.034 0 0 0-2.851-1.18H6.645a4.032 4.032 0 1 0 0 8.064h38.71a4.034 4.034 0 0 0 4.032-4.032c0-1.07-.425-2.095-1.18-2.852zM42.13 31.645H29.226v8.065h12.903zm-5.645-7.258v-2.42h-1.613v2.42a.806.806 0 0 1-.234.572 4.67 4.67 0 0 0-1.379 3.323v1.75h4.839v-1.75a4.671 4.671 0 0 0-1.379-3.323.805.805 0 0 1-.234-.572zm3.226-5.645h-8.065v1.613h8.065zm-3.226-1.613V2.613H34.87v14.516z"/></svg>