<svg width="45" height="20" xmlns="http://www.w3.org/2000/svg"><path d="M39.688 0H5a5 5 0 0 0-5 5v10a5 5 0 0 0 5 5h34.688a5 5 0 0 0 5-5V5a5 5 0 0 0-5-5z" fill="#fff"/><path d="M10.945 5c-.024 1.964-.158 3.068-.894 3.804-.736.737-1.839.871-3.801.895v.29c1.962.025 3.065.16 3.801.896.736.736.87 1.84.894 3.804h.29c.025-1.964.159-3.068.895-3.804.736-.737 1.839-.87 3.8-.895V9.7c-1.961-.025-3.064-.159-3.8-.896-.736-.736-.87-1.84-.895-3.804zm7.135 9.997V12.49h.503c.336-.557.462-1.512.504-2.688l.126-3.621h4.457v6.309h.682v2.508h-1.186v-1.522h-3.9v1.522zm2.119-5.028c-.042 1.176-.2 2.026-.42 2.52h2.622V7.166h-2.108zm6.286 2.624c-.64 0-1.27-.23-1.605-.483v1.018c.241.2.85.452 1.751.452 1.332 0 2.035-.599 2.035-1.659 0-.619-.388-1.039-1.08-1.186.65-.21.923-.672.923-1.26 0-.892-.703-1.385-1.836-1.385-.818 0-1.353.252-1.657.44v1.02c.336-.221.797-.473 1.48-.473.46 0 .754.22.754.609 0 .409-.251.63-.765.63h-.787v.944h.787c.64 0 .891.189.891.65 0 .42-.304.683-.891.683zm6.903.525c-.368.252-.955.462-1.752.462-1.594 0-2.496-.892-2.496-2.73 0-1.595.724-2.76 2.244-2.76 1.249 0 2.056.693 2.056 2.53v.661h-3.01c.052.882.398 1.312 1.31 1.312a3.18 3.18 0 0 0 1.647-.493zm-2.958-2.76h1.74v-.106c0-.661-.188-1.175-.807-1.175-.597 0-.902.44-.933 1.28zM37.186 8.2v2.089h-1.668V8.2H34.27v5.28h1.248v-2.204h1.668v2.204h1.248V8.2z" fill="#9a9793"/></svg>