<svg xmlns="http://www.w3.org/2000/svg" width="20" height="20"><path d="M14.48 0A5.526 5.526 0 0 1 20 5.52v8.96A5.526 5.526 0 0 1 14.48 20H5.52A5.525 5.525 0 0 1 0 14.48V5.52A5.526 5.526 0 0 1 5.52 0zm3.745 14.48V5.52a3.75 3.75 0 0 0-3.744-3.745H5.519a3.749 3.749 0 0 0-3.744 3.744v8.962a3.749 3.749 0 0 0 3.744 3.745h8.962a3.75 3.75 0 0 0 3.745-3.745z" fill="#9a9793"/><path d="M15.157 10.003a5.16 5.16 0 0 1-5.154 5.154 5.16 5.16 0 0 1-5.153-5.154 5.16 5.16 0 0 1 5.153-5.153 5.16 5.16 0 0 1 5.154 5.153zm-1.775 0a3.383 3.383 0 0 0-3.379-3.379 3.383 3.383 0 0 0-3.378 3.38 3.383 3.383 0 0 0 3.378 3.378 3.383 3.383 0 0 0 3.38-3.379zm1.989-6.663a1.306 1.306 0 0 0-1.301 1.301c0 .342.14.678.382.92.241.242.577.382.92.382.342 0 .677-.14.92-.381a1.307 1.307 0 0 0 0-1.84 1.307 1.307 0 0 0-.92-.382z" fill="#9a9793"/></svg>