<svg xmlns="http://www.w3.org/2000/svg" width="37" height="50"><path fill="#383838" d="M36.654 47.548A2.484 2.484 0 0 1 34.174 50H2.48a2.453 2.453 0 0 1-1.751-.729A2.451 2.451 0 0 1 0 47.52V4.974a2.452 2.452 0 0 1 .729-1.752 2.452 2.452 0 0 1 1.751-.729h12.034A4.134 4.134 0 0 1 16.752.307a4.134 4.134 0 0 1 3.129 0 4.123 4.123 0 0 1 2.256 2.2h12.04a2.453 2.453 0 0 1 1.752.729 2.48 2.48 0 0 1 .725 1.752zM26.694 9.17V7.955l-5.426-3.1a.82.82 0 0 1-.41-.701 2.526 2.526 0 0 0-1.261-2.183 2.526 2.526 0 0 0-2.519 0 2.526 2.526 0 0 0-1.272 2.19.824.824 0 0 1-.41.7l-5.43 3.1v1.216zM1.63 47.52a.858.858 0 0 0 .851.855h31.69a.858.858 0 0 0 .855-.855V4.988a.858.858 0 0 0-.855-.855H23.272l4.63 2.648a.82.82 0 0 1 .414.7v2.502a.817.817 0 0 1-.816.816H9.154a.816.816 0 0 1-.816-.816V7.482a.823.823 0 0 1 .41-.7l4.634-2.65H2.48a.858.858 0 0 0-.851.842z"/><path fill="#383838" d="M18.33 5.029a.88.88 0 1 0 0-1.759.88.88 0 0 0 0 1.759zM5.819 30.057a.878.878 0 0 1-.785-1.275l1.668-3.338a.876.876 0 0 1 .739-.487v-2.452a3.384 3.384 0 0 1 3.384-3.381h3.454a2.536 2.536 0 0 1 2.382-1.664h3.342a2.547 2.547 0 1 1 0 5.094h-3.335a2.55 2.55 0 0 1-2.389-1.668h-3.454a1.622 1.622 0 0 0-1.622 1.622v2.452h3.29a.88.88 0 0 1 .784 1.275l-.196.393h1.618l3.108-2.326a.89.89 0 0 1 1.05 0l3.101 2.326h2.165v-.788a.88.88 0 0 1 .88-.88h5.002a.88.88 0 0 1 .88.88v3.345a.88.88 0 0 1-.863.869H28.4v5.65c.178.066.365.1.554.099h1.05a.88.88 0 0 1 .88.879v3.335a.88.88 0 0 1-.88.88H25.02a.88.88 0 0 1-.88-.88v-.788h-1.75a2.547 2.547 0 0 1-2.393 1.667h-3.335a2.547 2.547 0 0 1 0-5.093h3.318a2.547 2.547 0 0 1 2.392 1.667h1.752v-.788a.88.88 0 0 1 .483-.795l.536-.267a3.458 3.458 0 0 1 1.482-.35v-5.202h-1.622a.88.88 0 0 1-.879-.883v-.799h-2.165l-2.75 2.064v.392a3.384 3.384 0 0 1-3.38 3.384h-5.003a3.384 3.384 0 0 1-3.384-3.38v-.789zm12.51-1.149l1.87-1.4-1.87-1.402-1.871 1.401zm-9.126 1.934a1.619 1.619 0 0 0 1.622 1.622h5.002a1.625 1.625 0 0 0 1.622-1.618v-.396l-2.75-2.064h-2.497l-.592 1.184a.876.876 0 0 1-.785.487H9.203zm1.075-2.533l.789-1.576H8.033l-.788 1.573zm18.848 9.26h-.19a3.436 3.436 0 0 1-1.527-.351 1.675 1.675 0 0 0-1.478 0l-.05.024v1.896h3.245zm-3.244-10.836v1.562h3.243V26.72zm-5.158 11.315a.79.79 0 0 0-.728-.487h-3.335a.788.788 0 1 0 0 1.577h3.335a.788.788 0 0 0 .729-1.09zm-4.851-18.045a.788.788 0 0 0 .788.789h3.335a.788.788 0 1 0 0-1.577h-3.335a.788.788 0 0 0-.781.788zm5.379-6.723h-5.84a.462.462 0 0 0-.462.462v.834c0 .256.207.463.462.463h5.84a.462.462 0 0 0 .463-.463v-.834a.462.462 0 0 0-.463-.462zm5.849 30.86h-2.536c-.246 0-.445.2-.445.445v.869c0 .245.2.445.445.445H27.1c.246 0 .445-.2.445-.445v-.87c0-.245-.2-.444-.445-.444zm5.01 0h-2.536c-.246 0-.445.2-.445.445v.869c0 .245.2.445.445.445h2.536c.246 0 .445-.2.445-.445v-.87c0-.245-.2-.444-.445-.444zm-7.514-30.86h-.855a.452.452 0 0 0-.452.452v.855c0 .25.202.452.452.452h.855c.25 0 .452-.203.452-.452v-.855a.452.452 0 0 0-.452-.452zm-11.69 0h-.855a.452.452 0 0 0-.452.452v.855c0 .25.202.452.452.452h.855c.25 0 .452-.203.452-.452v-.855a.452.452 0 0 0-.452-.452z"/></svg>