<svg xmlns="http://www.w3.org/2000/svg" width="50" height="50"><path fill="#383838" d="M49.439 8.379a.834.834 0 0 1 .561.787v40a.834.834 0 0 1-.833.834H45a.834.834 0 0 1-.833-.833V20H5.833v29.167A.833.833 0 0 1 5 50H.833A.834.834 0 0 1 0 49.167v-40c0-.356.226-.672.562-.788L24.729.045a.834.834 0 0 1 .543 0L49.439 8.38zm-5.272 8.287H5.833v1.667h38.334zm0-3.333H5.833V15h38.334zm4.166-3.572L25 1.715 1.667 9.761v38.572h2.5V12.5c0-.46.373-.834.833-.834h40a.834.834 0 0 1 .834.834v35.833h2.5z"/><path fill="#383838" d="M38.334 31.663a.834.834 0 0 1 .833.834v16.666a.834.834 0 0 1-.834.834h-30a.833.833 0 0 1-.833-.834v-25c0-.46.373-.833.833-.833h20a.833.833 0 0 1 .834.833v7.5zm-25.834-5h1.667v-1.666H12.5zm5 15h-1.667v2.5a.833.833 0 0 1-.833.834h-3.333a.833.833 0 0 1-.834-.834v-2.5H9.167v6.667H17.5zm-3.333 1.667v-1.667H12.5v1.667zm3.333-10h-1.667v2.5a.833.833 0 0 1-.833.833h-3.333a.833.833 0 0 1-.834-.833v-2.5H9.167v6.667H17.5zm-3.333 1.667V33.33H12.5v1.667zm3.333-10h-1.667v2.5a.833.833 0 0 1-.833.833h-3.333a.834.834 0 0 1-.834-.833v-2.5H9.167v6.666H17.5zm5 1.666h1.667v-1.666H22.5zm5 15h-1.667v2.5a.834.834 0 0 1-.833.834h-3.333a.833.833 0 0 1-.834-.834v-2.5h-1.666v6.667H27.5zm-3.333 1.667v-1.667H22.5v1.667zm3.333-10h-1.667v2.5a.834.834 0 0 1-.833.833h-3.333a.833.833 0 0 1-.834-.833v-2.5h-1.666v6.667H27.5zm-3.333 1.667V33.33H22.5v1.667zm3.333-10h-1.667v2.5a.834.834 0 0 1-.833.833h-3.333a.833.833 0 0 1-.834-.833v-2.5h-1.666v6.666H27.5zm5 10h1.667V33.33H32.5zm5 6.666h-1.667v2.5a.833.833 0 0 1-.833.834h-3.333a.833.833 0 0 1-.834-.834v-2.5h-1.666v6.667H37.5zm-3.333 1.667v-1.667H32.5v1.667zm3.333-10h-1.667v2.5a.833.833 0 0 1-.833.833h-3.333a.833.833 0 0 1-.834-.833v-2.5h-1.666v6.667H37.5z"/></svg>