<svg xmlns="http://www.w3.org/2000/svg" width="40" height="50"><path fill="#383838" d="M39.252 19.892a3.249 3.249 0 0 1-.45 4.256l-.964.897a1.543 1.543 0 0 0-.468 1.428l.243 1.275a3.27 3.27 0 0 1-2.143 3.713l-1.239.425a1.546 1.546 0 0 0-1.014 1.121l-.289 1.275a3.213 3.213 0 0 1-.964 1.667 3.253 3.253 0 0 1-1.743.825l-.26.036v12.344a.85.85 0 0 1-1.143.793l-8.905-3.34-8.905 3.34a.846.846 0 0 1-1.143-.793V36.82l-.26-.04a3.235 3.235 0 0 1-2.71-2.5l-.286-1.277a1.539 1.539 0 0 0-1.018-1.118l-1.225-.421a3.26 3.26 0 0 1-2.142-3.696l.268-1.307a1.546 1.546 0 0 0-.472-1.428l-.981-.9a3.253 3.253 0 0 1-.45-4.249l.76-1.071a1.514 1.514 0 0 0 .157-1.49l-.521-1.217a3.26 3.26 0 0 1-.079-2.281 3.22 3.22 0 0 1 1.429-1.786l1.114-.671a1.546 1.546 0 0 0 .746-1.318l.021-1.317a3.25 3.25 0 0 1 .832-2.125 3.246 3.246 0 0 1 2.029-1.046l1.3-.16A1.539 1.539 0 0 0 9.6 4.52l.55-1.197a3.264 3.264 0 0 1 1.628-1.603 3.235 3.235 0 0 1 2.278-.14l1.246.397a1.525 1.525 0 0 0 1.482-.31l.99-.865A3.214 3.214 0 0 1 19.916 0a3.214 3.214 0 0 1 2.142.81l.982.854a1.532 1.532 0 0 0 1.475.318l1.253-.393a3.267 3.267 0 0 1 2.282.14c.717.32 1.295.887 1.628 1.599l.55 1.196a1.55 1.55 0 0 0 1.203.868l1.325.16c.78.093 1.498.468 2.02 1.054.53.588.824 1.35.825 2.142l.026 1.303a1.546 1.546 0 0 0 .756 1.31l1.136.683a3.26 3.26 0 0 1 1.428 1.785c.24.747.203 1.556-.103 2.278l-.518 1.207a1.541 1.541 0 0 0 .15 1.5zM28.25 36.682h-.357c-.205.014-.406.07-.589.164l-.046.028c-.192.106-.36.25-.493.425l-.775 1.036a3.49 3.49 0 0 1-.489.514 1.391 1.391 0 0 1-.114.09l-.054.038a3.732 3.732 0 0 1-.403.265 3.215 3.215 0 0 1-.686.279l-.085.024H24.1a3.368 3.368 0 0 1-.657.075h-.153a3.133 3.133 0 0 1-.575-.071c-.068-.015-.136-.029-.207-.05a3.382 3.382 0 0 1-.696-.279l-1.136-.628a1.517 1.517 0 0 0-1.517 0l-1.147.653a3.213 3.213 0 0 1-4.18-.885l-.79-1.072a1.745 1.745 0 0 0-.568-.45 1.5 1.5 0 0 0-.521-.146l-.396-.032v11.269l8.077-3.02a.857.857 0 0 1 .596 0l8.037 3.02zm9.391-13.79a1.563 1.563 0 0 0 .211-2.025l-.757-1.071a3.243 3.243 0 0 1-.325-3.157l.51-1.2a1.547 1.547 0 0 0-.624-1.935l-1.136-.692a3.255 3.255 0 0 1-1.581-2.74l-.022-1.299a1.52 1.52 0 0 0-1.353-1.528l-1.321-.16a3.252 3.252 0 0 1-2.553-1.858l-.55-1.196a1.568 1.568 0 0 0-1.868-.832l-1.253.39a3.214 3.214 0 0 1-3.096-.654l-.989-.86a1.539 1.539 0 0 0-2.035 0l-.996.867a3.213 3.213 0 0 1-3.103.65l-1.246-.39a1.564 1.564 0 0 0-1.868.84l-.55 1.193A3.256 3.256 0 0 1 8.573 7.09l-1.297.157a1.517 1.517 0 0 0-1.364 1.514l-.025 1.322A3.242 3.242 0 0 1 4.3 12.822l-1.118.675a1.55 1.55 0 0 0-.64 1.946l.526 1.2a3.239 3.239 0 0 1-.332 3.15l-.765 1.07a1.55 1.55 0 0 0 .218 2.04l.968.9a3.242 3.242 0 0 1 .978 3.002l-.264 1.3a1.55 1.55 0 0 0 1.032 1.764l1.243.425a3.213 3.213 0 0 1 2.113 2.353l.307 1.264a1.553 1.553 0 0 0 1.657 1.207l1.304-.13a3.297 3.297 0 0 1 2.892 1.286l.785 1.072a1.543 1.543 0 0 0 2.007.42l1.14-.631a3.04 3.04 0 0 1 .767-.31.161.161 0 0 1 .057 0 1 1 0 0 0 .136-.019c.197-.045.398-.072.6-.082.12.01.239.027.357.05h.042a2.47 2.47 0 0 1 1.2.357l1.125.625a1.557 1.557 0 0 0 2.01-.421l.779-1.046a3.214 3.214 0 0 1 2.888-1.293l1.343.129a1.556 1.556 0 0 0 1.628-1.207l.286-1.275a3.238 3.238 0 0 1 2.12-2.357l1.236-.421a1.557 1.557 0 0 0 1.032-1.785l-.26-1.275a3.247 3.247 0 0 1 .978-3.017z"/><path fill="#383838" d="M27.377 15.26a3.013 3.013 0 0 1 1.682 5.145l-1.886 1.835a1.317 1.317 0 0 0-.382 1.168l.45 2.596a3.017 3.017 0 0 1-4.378 3.181l-2.331-1.228a1.3 1.3 0 0 0-1.228 0l-2.329 1.228a3.014 3.014 0 0 1-4.374-3.181l.447-2.593a1.307 1.307 0 0 0-.382-1.17l-1.886-1.836a3.017 3.017 0 0 1 1.671-5.146l2.596-.36a1.314 1.314 0 0 0 .993-.714l1.164-2.36a3.02 3.02 0 0 1 1.61-1.479 3.017 3.017 0 0 1 3.774 1.428l1.19 2.414a1.325 1.325 0 0 0 .996.714l2.603.357zm.49 3.93a1.321 1.321 0 0 0-.719-2.252l-2.589-.375a3.013 3.013 0 0 1-2.274-1.653l-1.164-2.36a1.31 1.31 0 0 0-1.745-.612 1.325 1.325 0 0 0-.455.354l-.035-.018-1.296 2.636a3.014 3.014 0 0 1-2.271 1.653l-2.607.375a1.307 1.307 0 0 0-1.071.9 1.321 1.321 0 0 0 .335 1.356l1.886 1.836a3.01 3.01 0 0 1 .867 2.67l-.446 2.596a1.321 1.321 0 0 0 1.918 1.393l2.328-1.228a3.032 3.032 0 0 1 2.81 0l2.331 1.228a1.296 1.296 0 0 0 1.171.03 1.321 1.321 0 0 0 .743-1.423l-.446-2.596a3.01 3.01 0 0 1 .868-2.67l1.37-1.336z"/></svg>