<svg xmlns="http://www.w3.org/2000/svg" width="66" height="50"><path fill="#383838" d="M26.276 23.004a9.277 9.277 0 0 1-2.716-6.439 9.155 9.155 0 1 1 9.155 9.155 9.277 9.277 0 0 1-6.439-2.716zm1.657-11.335a6.776 6.776 0 1 0 4.782-1.988 6.78 6.78 0 0 0-4.782 1.988zM45.88 15.65a9.22 9.22 0 0 1-2.74-6.495A9.22 9.22 0 0 1 52.408 0a9.165 9.165 0 0 1 9.155 9.155 9.165 9.165 0 0 1-9.155 9.155 9.22 9.22 0 0 1-6.528-2.66zm1.685-11.337a6.973 6.973 0 0 0-2.041 4.842 6.921 6.921 0 0 0 6.884 6.777 6.917 6.917 0 0 0 6.79-6.884 6.781 6.781 0 0 0-6.79-6.777 6.973 6.973 0 0 0-4.843 2.042zM38.026 28.71a7.783 7.783 0 0 1 7.718 7.825v12.27a1.24 1.24 0 0 1-1.19 1.194H20.77a1.241 1.241 0 0 1-1.189-1.194v-12.27a7.835 7.835 0 0 1 7.825-7.825zm5.559 7.825a5.454 5.454 0 0 0-5.46-5.441H27.517a5.45 5.45 0 0 0-5.447 5.441v11.09h21.514z"/><path fill="#383838" d="M57.608 21.41H46.992A7.68 7.68 0 0 0 40 25.793a22.84 22.84 0 0 1 2.341.66 5.577 5.577 0 0 1 4.768-2.772h10.499a5.45 5.45 0 0 1 5.446 5.456v11.08H48.898V42.6h15.346a1.236 1.236 0 0 0 1.194-1.189V29.137a7.624 7.624 0 0 0-2.267-5.46 7.844 7.844 0 0 0-5.563-2.267zM6.554 15.626a9.165 9.165 0 0 1-2.684-6.47 9.164 9.164 0 0 1 15.64-6.479 9.17 9.17 0 0 1 2.694 6.478 9.17 9.17 0 0 1-15.65 6.471zM8.24 4.336a6.917 6.917 0 0 0-1.985 4.82 6.781 6.781 0 0 0 6.771 6.775 6.842 6.842 0 0 0 6.776-6.884 6.781 6.781 0 0 0-6.776-6.776A6.917 6.917 0 0 0 8.24 4.336zm-.654 19.348h10.64a5.418 5.418 0 0 1 4.735 2.711 8.93 8.93 0 0 1 2.341-.744 7.685 7.685 0 0 0-6.968-4.35H7.825A7.835 7.835 0 0 0 0 29.138v12.27a1.236 1.236 0 0 0 1.19 1.19h15.35v-2.38H2.38V29.14a5.502 5.502 0 0 1 5.207-5.455z"/></svg>