<svg xmlns="http://www.w3.org/2000/svg" width="20" height="12"><path fill="#fff" d="M4.387 1.186c.558 1.379 1.265 2.679 2.197 3.846.124.155.28.293.444.406.24.164.466.107.564-.168.103-.288.197-.87.203-1.173A25.3 25.3 0 0 0 7.75 2c-.027-.505-.207-.949-.95-1.083C6.57.877 6.55.688 6.697.5 7.004.107 7.43.045 7.895.02c.751-.04 1.506-.007 2.258 0 .306.004.615.028.916.094.394.086.605.362.67.746.033.199.05.403.046.603-.02.862-.061 1.724-.07 2.585-.005.338.02.685.092 1.014.101.46.414.575.733.243.406-.421.764-.895 1.1-1.377.61-.875 1.065-1.836 1.458-2.827.203-.511.358-.622.908-.623 1.034-.003 2.067-.004 3.101 0 .183 0 .375.018.548.073.28.09.392.318.327.61-.154.68-.522 1.259-.916 1.815-.632.893-1.295 1.765-1.943 2.647a3.34 3.34 0 0 0-.223.354c-.242.438-.225.683.128 1.047.562.58 1.164 1.123 1.708 1.718.396.434.762.904 1.075 1.399.397.626.152 1.215-.589 1.32-.466.066-2.742 0-2.86 0a2.228 2.228 0 0 1-1.58-.63c-.48-.463-.917-.97-1.378-1.453a3.856 3.856 0 0 0-.448-.407c-.377-.288-.747-.224-.924.219-.15.38-.28 1.38-.287 1.466-.031.446-.315.73-.815.758-1.444.078-2.843-.082-4.146-.78-1.105-.592-1.987-1.429-2.751-2.404C2.819 6.68 1.861 4.977.985 3.224.941 3.134.055 1.248.03 1.16-.049.861.025.576.277.478c.157-.062 3.08 0 3.129.002.466.025.784.222.98.706z"/></svg>