<svg xmlns="http://www.w3.org/2000/svg" width="12" height="20"><path fill="#fff" d="M7.883 14.533a9.66 9.66 0 0 0 2.998-1.242 1.513 1.513 0 0 0-1.612-2.562 6.555 6.555 0 0 1-6.95 0A1.514 1.514 0 1 0 .706 13.29a9.659 9.659 0 0 0 2.997 1.242L.82 17.42a1.51 1.51 0 1 0 2.138 2.138l2.836-2.836 2.836 2.836a1.51 1.51 0 0 0 2.138 0 1.51 1.51 0 0 0 0-2.138zM5.795 3.026a2.14 2.14 0 0 1 2.138 2.138 2.139 2.139 0 0 1-4.276 0c0-1.18.96-2.138 2.138-2.138zm0 7.297a5.166 5.166 0 0 0 5.161-5.16A5.167 5.167 0 0 0 5.795 0 5.167 5.167 0 0 0 .634 5.161a5.167 5.167 0 0 0 5.16 5.162z"/></svg>