<svg xmlns="http://www.w3.org/2000/svg" width="20" height="20"><path fill="#fff" d="M0 20.022l1.4-4.975a9.956 9.956 0 0 1-1.374-5.06C.026 4.48 4.506 0 10.013 0S20 4.48 20 9.987s-4.48 9.987-9.987 9.987a9.974 9.974 0 0 1-4.883-1.273zm5.393-3.138l.305.187a8.276 8.276 0 0 0 4.315 1.21c4.573 0 8.293-3.721 8.293-8.294s-3.72-8.293-8.293-8.293c-4.573 0-8.293 3.72-8.293 8.293 0 1.593.453 3.14 1.31 4.475l.205.32-.806 2.865z"/><path fill="#fff" d="M7.204 5.337L6.556 5.3a.784.784 0 0 0-.557.19c-.314.274-.817.801-.971 1.488-.23 1.025.125 2.28 1.046 3.535.92 1.255 2.635 3.263 5.668 4.12.977.277 1.746.09 2.339-.289.47-.3.794-.783.91-1.328l.104-.483a.336.336 0 0 0-.188-.376l-2.19-1.01a.336.336 0 0 0-.407.1l-.86 1.115a.246.246 0 0 1-.276.083c-.589-.207-2.561-1.033-3.643-3.118a.249.249 0 0 1 .031-.277l.822-.95a.336.336 0 0 0 .054-.352l-.944-2.21a.336.336 0 0 0-.29-.202z"/></svg>