<svg xmlns="http://www.w3.org/2000/svg" width="20" height="20"><path fill="#fff" d="M18.464 0H7.41a1.43 1.43 0 0 0-1.43 1.429v3.354h1.304V1.429c0-.069.056-.125.125-.125h11.055c.069 0 .125.056.125.125v11.055a.125.125 0 0 1-.125.125h-3.249v1.304h3.25a1.43 1.43 0 0 0 1.428-1.429V1.43A1.43 1.43 0 0 0 18.464 0z"/><path fill="#fff" d="M12.484 6.09a1.43 1.43 0 0 1 1.43 1.429v11.055a1.43 1.43 0 0 1-1.43 1.43H1.43A1.43 1.43 0 0 1 0 18.573V7.52a1.43 1.43 0 0 1 1.429-1.43zm0 12.609a.125.125 0 0 0 .125-.125V7.52a.125.125 0 0 0-.125-.125H1.43a.125.125 0 0 0-.125.125v11.055c0 .069.056.125.125.125z"/></svg>